<?xml version="1.0" encoding="utf-8"?><svg xmlns="http://www.w3.org/2000/svg" xmlns:xlink="http://www.w3.org/1999/xlink"><symbol viewBox="0 0 13 15" id="arrow-down" xmlns="http://www.w3.org/2000/svg">
    <path d="M5.87171 14.5789C6.19686 14.9041 6.72404 14.9041 7.04919 14.5789L12.3479 9.28023C12.673 8.95507 12.673 8.4279 12.3479 8.10275C12.0227 7.77759 11.4955 7.77759 11.1704 8.10275L6.46045 12.8127L1.75052 8.10275C1.42537 7.77759 0.898189 7.77759 0.573037 8.10275C0.247884 8.4279 0.247884 8.95508 0.573037 9.28023L5.87171 14.5789ZM5.62784 0.421997L5.62784 13.9902L7.29306 13.9902L7.29306 0.421997L5.62784 0.421997Z"/>
</symbol><symbol viewBox="0 0 66 23" id="arrow-left" xmlns="http://www.w3.org/2000/svg">
    <path d="M0.843742 12.9912C0.258575 12.406 0.258575 11.4573 0.843742 10.8721L10.3797 1.33617C10.9648 0.751004 11.9136 0.751004 12.4987 1.33618C13.0839 1.92135 13.0839 2.8701 12.4987 3.45527L4.02238 11.9316L12.4987 20.408C13.0839 20.9932 13.0839 21.9419 12.4987 22.5271C11.9136 23.1123 10.9648 23.1123 10.3797 22.5271L0.843742 12.9912ZM65.0273 13.4301L1.90329 13.4301L1.90329 10.4332L65.0273 10.4332L65.0273 13.4301Z"/>
</symbol><symbol viewBox="0 0 181 30" id="arrow-next" xmlns="http://www.w3.org/2000/svg">
    <path d="M179.719 16.6764C180.5 15.8954 180.5 14.629 179.719 13.848L166.991 1.12007C166.21 0.339023 164.944 0.339023 164.163 1.12007C163.382 1.90112 163.382 3.16745 164.163 3.9485L175.476 15.2622L164.163 26.5759C163.382 27.357 163.382 28.6233 164.163 29.4043C164.944 30.1854 166.21 30.1854 166.991 29.4043L179.719 16.6764ZM0.496094 17.2622H178.305V13.2622H0.496094V17.2622Z"/>
</symbol><symbol viewBox="0 0 163 30" id="arrow-prev" xmlns="http://www.w3.org/2000/svg">
    <path d="M0.632904 13.848C-0.148148 14.629 -0.148148 15.8954 0.632904 16.6764L13.3608 29.4043C14.1419 30.1854 15.4082 30.1854 16.1893 29.4043C16.9703 28.6233 16.9703 27.357 16.1893 26.5759L4.87555 15.2622L16.1893 3.94849C16.9703 3.16744 16.9703 1.90111 16.1893 1.12006C15.4082 0.33901 14.1419 0.33901 13.3608 1.12006L0.632904 13.848ZM162.417 13.2622L2.04712 13.2622L2.04712 17.2622L162.417 17.2622L162.417 13.2622Z"/>
</symbol><symbol viewBox="0 0 72 23" id="arrow-right" xmlns="http://www.w3.org/2000/svg">
    <path d="M70.9115 12.9912C71.4966 12.406 71.4966 11.4573 70.9115 10.8721L61.3756 1.33619C60.7904 0.751014 59.8416 0.751014 59.2565 1.33618C58.6713 1.92136 58.6713 2.87011 59.2565 3.45528L67.7328 11.9316L59.2565 20.408C58.6713 20.9932 58.6713 21.9419 59.2565 22.5271C59.8416 23.1123 60.7904 23.1123 61.3756 22.5271L70.9115 12.9912ZM0.977783 13.4301L69.8519 13.4301L69.8519 10.4332L0.977783 10.4332L0.977783 13.4301Z"/>
</symbol><symbol viewBox="0 0 39 24" id="arrow-up" xmlns="http://www.w3.org/2000/svg">
    <line x1="21.2699" y1="1.42738" x2="1.23281" y2="22.0211" stroke-width="3"/>
    <line x1="37.5328" y1="20.4761" x2="19.6393" y2="1.94684" stroke-width="3"/>
</symbol><symbol viewBox="0 0 57 27" id="burger-button" xmlns="http://www.w3.org/2000/svg">
    <line x1="0.695312" y1="2.70703" x2="56.6294" y2="2.70703" stroke-width="4.31251"/>
    <line x1="0.695312" y1="13.7676" x2="56.6294" y2="13.7676" stroke-width="4.31251"/>
    <line x1="0.695312" y1="24.5156" x2="56.6294" y2="24.5156" stroke-width="4.31251"/>
</symbol><symbol viewBox="0 0 16 16" id="button-arrow-catalog" xmlns="http://www.w3.org/2000/svg">
    <path d="M15.8309 1.4783C15.84 0.92609 15.3997 0.471098 14.8474 0.462048L5.84865 0.314565C5.29644 0.305515 4.84145 0.745833 4.8324 1.29804C4.82335 1.85025 5.26367 2.30525 5.81588 2.3143L13.8148 2.44539L13.6837 10.4443C13.6747 10.9965 14.115 11.4515 14.6672 11.4606C15.2194 11.4696 15.6744 11.0293 15.6834 10.4771L15.8309 1.4783ZM2.13463 15.1405L15.5265 2.18051L14.1356 0.743315L0.743784 13.7033L2.13463 15.1405Z"/>
</symbol><symbol viewBox="0 0 24 24" id="filter" xmlns="http://www.w3.org/2000/svg">
    <line class="icls-2" x1="7" x2="7" y1="6" y2="13"/>
    <circle class="icls-2" cx="7" cy="14.5" r="1.5"/>
    <line class="icls-2" x1="7" x2="7" y1="16" y2="18"/>
    <line class="icls-2" x1="12" x2="12" y1="6" y2="8"/>
    <circle class="icls-2" cx="12" cy="9.5" r="1.5"/>
    <line class="icls-2" x1="12" x2="12" y1="11" y2="18"/>
    <line class="icls-2" x1="17" x2="17" y1="6" y2="11"/>
    <circle class="icls-2" cx="17" cy="12.5" r="1.5"/>
    <line class="icls-2" x1="17" x2="17" y1="14" y2="18"/>
</symbol><symbol viewBox="0 0 24 25" id="heart" xmlns="http://www.w3.org/2000/svg">
    <path fill-rule="evenodd" clip-rule="evenodd" d="M12.6924 7.58373C12.3055 7.95505 11.6945 7.95505 11.3076 7.58373L10.6152 6.91927C9.80477 6.14154 8.70994 5.66667 7.5 5.66667C5.01472 5.66667 3 7.68139 3 10.1667C3 12.5493 4.28979 14.5167 6.15176 16.1332C8.01532 17.7511 10.2434 18.8241 11.5746 19.3717C11.853 19.4862 12.147 19.4862 12.4254 19.3717C13.7566 18.8241 15.9847 17.7511 17.8482 16.1332C19.7102 14.5167 21 12.5493 21 10.1667C21 7.68139 18.9853 5.66667 16.5 5.66667C15.2901 5.66667 14.1952 6.14154 13.3848 6.91927L12.6924 7.58373ZM12 5.47624C10.8321 4.35548 9.24649 3.66667 7.5 3.66667C3.91015 3.66667 1 6.57682 1 10.1667C1 16.5349 7.97034 20.0517 10.8138 21.2214C11.5796 21.5364 12.4204 21.5364 13.1862 21.2214C16.0297 20.0517 23 16.5349 23 10.1667C23 6.57682 20.0899 3.66667 16.5 3.66667C14.7535 3.66667 13.1679 4.35548 12 5.47624Z"/>
</symbol><symbol viewBox="0 0 24 24" id="heart-line" xmlns="http://www.w3.org/2000/svg">
    <path d="M12.001 4.52853C14.35 2.42 17.98 2.49 20.2426 4.75736C22.5053 7.02472 22.583 10.637 20.4786 12.993L11.9999 21.485L3.52138 12.993C1.41705 10.637 1.49571 7.01901 3.75736 4.75736C6.02157 2.49315 9.64519 2.41687 12.001 4.52853ZM18.827 6.1701C17.3279 4.66794 14.9076 4.60701 13.337 6.01687L12.0019 7.21524L10.6661 6.01781C9.09098 4.60597 6.67506 4.66808 5.17157 6.17157C3.68183 7.66131 3.60704 10.0473 4.97993 11.6232L11.9999 18.6543L19.0201 11.6232C20.3935 10.0467 20.319 7.66525 18.827 6.1701Z"/>
</symbol><symbol viewBox="0 0 50 49" id="home" xmlns="http://www.w3.org/2000/svg">
    <path d="M40.0103 20.825L43.7588 24.5735L41.1618 27.1705L25.3103 11.319L9.45882 27.1705L6.86182 24.5735L25.3103 6.125L35.1103 15.925V11.025H40.0103V20.825ZM25.3103 14.798L40.0103 29.4735V44.1H10.6103V29.4735L25.3103 14.798ZM30.2103 41.65V29.4H20.4103V41.65H30.2103Z"/>
</symbol><symbol viewBox="0 0 24 24" id="id-card-line" xmlns="http://www.w3.org/2000/svg">
    <path d="M3 6H21V18H3V6ZM2 4C1.44772 4 1 4.44772 1 5V19C1 19.5523 1.44772 20 2 20H22C22.5523 20 23 19.5523 23 19V5C23 4.44772 22.5523 4 22 4H2ZM13 8H19V10H13V8ZM18 12H13V14H18V12ZM10.5 10C10.5 11.3807 9.38071 12.5 8 12.5C6.61929 12.5 5.5 11.3807 5.5 10C5.5 8.61929 6.61929 7.5 8 7.5C9.38071 7.5 10.5 8.61929 10.5 10ZM8 13.5C6.067 13.5 4.5 15.067 4.5 17H11.5C11.5 15.067 9.933 13.5 8 13.5Z"/>
</symbol><symbol viewBox="0 0 38 42" id="phone-button" xmlns="http://www.w3.org/2000/svg">
    <path d="M15.3442 12.9553L15.7327 12.5453C16.6947 11.4383 16.5282 10.9258 15.5847 9.88032L10.5527 4.24282C9.05424 2.56182 8.77674 1.76232 7.35225 3.25882L6.96374 3.66882L15.3442 12.9553ZM14.3637 13.8778L6.22374 4.85782C4.92874 6.78482 1.89474 11.9713 3.39324 15.8048C4.74374 19.2283 5.40974 19.3923 7.09324 21.9548C10.5157 26.2803 14.8262 30.9133 18.1932 34.3983C20.5242 36.2638 20.6167 37.1248 23.7432 38.4983C27.0732 39.9538 31.8832 36.6738 33.6962 35.3003L25.5562 26.2803L23.3732 29.6013C22.7442 30.5443 21.1532 29.4783 20.0432 28.2483C18.1192 26.0958 14.1602 21.7293 12.6432 19.9048C11.5517 18.6953 10.5712 16.9323 11.4222 16.2148L14.3637 13.8778ZM34.7507 34.4803L35.1392 34.0498C36.3972 32.5328 35.6757 32.2048 34.1772 30.5648L29.1082 24.9888C28.1647 23.9843 27.7207 23.7588 26.7587 24.7633L26.3887 25.1938L34.7507 34.4803Z"/>
</symbol><symbol viewBox="0 0 24 24" id="search" xmlns="http://www.w3.org/2000/svg">
    <path d="M18.5 18.5L22 22M21 11.5C21 6.25329 16.7467 2 11.5 2C6.25329 2 2 6.25329 2 11.5C2 16.7467 6.25329 21 11.5 21C16.7467 21 21 16.7467 21 11.5Z" stroke-width="1.5" stroke-linecap="round" stroke-linejoin="round"/>
</symbol><symbol viewBox="0 0 24 24" id="search-line" xmlns="http://www.w3.org/2000/svg">
    <path d="M18.031 16.6168L22.3137 20.8995L20.8995 22.3137L16.6168 18.031C15.0769 19.263 13.124 20 11 20C6.032 20 2 15.968 2 11C2 6.032 6.032 2 11 2C15.968 2 20 6.032 20 11C20 13.124 19.263 15.0769 18.031 16.6168ZM16.0247 15.8748C17.2475 14.6146 18 12.8956 18 11C18 7.1325 14.8675 4 11 4C7.1325 4 4 7.1325 4 11C4 14.8675 7.1325 18 11 18C12.8956 18 14.6146 17.2475 15.8748 16.0247L16.0247 15.8748Z"/>
</symbol><symbol viewBox="0 0 24 24" id="user" xmlns="http://www.w3.org/2000/svg">
    <path d="M18.5588 19.5488C17.5654 16.8918 15.0036 15 12 15C8.99638 15 6.4346 16.8918 5.44117 19.5488M18.5588 19.5488C20.6672 17.7154 22 15.0134 22 12C22 6.47715 17.5228 2 12 2C6.47715 2 2 6.47715 2 12C2 15.0134 3.33285 17.7154 5.44117 19.5488M18.5588 19.5488C16.8031 21.0756 14.5095 22 12 22C9.49052 22 7.19694 21.0756 5.44117 19.5488M15 9C15 10.6569 13.6569 12 12 12C10.3431 12 9 10.6569 9 9C9 7.34315 10.3431 6 12 6C13.6569 6 15 7.34315 15 9Z" stroke-width="1.5" stroke-linejoin="round"/>
</symbol><symbol viewBox="0 0 24 24" id="user-star-line" xmlns="http://www.w3.org/2000/svg">
    <path d="M12 14V16C8.68629 16 6 18.6863 6 22H4C4 17.5817 7.58172 14 12 14ZM12 13C8.685 13 6 10.315 6 7C6 3.685 8.685 1 12 1C15.315 1 18 3.685 18 7C18 10.315 15.315 13 12 13ZM12 11C14.21 11 16 9.21 16 7C16 4.79 14.21 3 12 3C9.79 3 8 4.79 8 7C8 9.21 9.79 11 12 11ZM18 21.5L15.0611 23.0451L15.6224 19.7725L13.2447 17.4549L16.5305 16.9775L18 14L19.4695 16.9775L22.7553 17.4549L20.3776 19.7725L20.9389 23.0451L18 21.5Z"/>
</symbol><symbol id="website" enable-background="new 0 0 497 497" viewBox="0 0 497 497" xmlns="http://www.w3.org/2000/svg">
    <g>
        <path d="m497 128.5v312c0 11.046-8.954 20-20 20h-457c-11.046 0-20-8.954-20-20v-312z"/>
        <g>
            <path d="m290.498 294.5c0-23.196-18.804-42-42-42-7.031 0-13.659 1.728-19.482 4.782-13.386 7.021-19.327 21.053-19.327 37.218 0 23.196 15.613 36.457 38.809 36.457 16.214 0 30.282-3.645 37.282-17.099 3.014-5.792 4.718-12.376 4.718-19.358z"/>
            <path d="m286.468 312.47c-6.73 14.21-21.2 24.03-37.97 24.03-23.2 0-42-18.8-42-42 0-16.77 9.82-31.24 24.03-37.97-2.59 5.45-4.03 11.54-4.03 17.97 0 23.2 18.8 42 42 42 6.43 0 12.52-1.44 17.97-4.03z"/>
        </g>
        <g>
            <path d="m429.496 294.5c0-23.196-18.804-42-42-42-7.031 0-13.659 1.728-19.482 4.782-13.386 7.021-19.327 21.053-19.327 37.218 0 23.196 15.613 36.457 38.809 36.457 16.214 0 30.282-3.645 37.282-17.099 3.014-5.792 4.718-12.376 4.718-19.358z"/>
            <path d="m425.466 312.47c-6.73 14.21-21.2 24.03-37.97 24.03-23.2 0-42-18.8-42-42 0-16.77 9.82-31.24 24.03-37.97-2.59 5.45-4.03 11.54-4.03 17.97 0 23.2 18.8 42 42 42 6.43 0 12.52-1.44 17.97-4.03z"/>
        </g>
        <path d="m497 148.5v-20l-276.011-12.798-220.989 12.798v20 292c0 11.046 8.954 20 20 20h15c-8.28 0-15-6.72-15-15v-291c0-3.314 2.686-6 6-6z"/>
        <g>
            <path d="m497 56.5v72.5h-497v-72.5c0-11.046 8.954-20 20-20h457c11.046 0 20 8.954 20 20z"/>
            <g>
                <path d="m227.758 108.5c-8.255 0-14.947-6.716-14.947-15s6.692-15 14.947-15h208.315c8.255 0 14.947 6.716 14.947 15s-6.692 15-14.947 15z"/>
                <ellipse cx="160.869" cy="93.5" rx="14.947" ry="15"/>
                <path d="m171.361 104.184 12.874-12.869-13.139 1.179z"/>
                <path d="m150.592 82.608 12.562-12.516-2.693 10.408z"/>
                <ellipse cx="98.034" cy="93.5" rx="14.947" ry="15"/>
                <path d="m108.553 104.157 12.382-12.499-12.674.836z"/>
                <path d="m87.757 82.608 12.371-12.459-2.502 10.351z"/>
                <ellipse cx="32.947" cy="93.5" rx="14.947" ry="15"/>
                <path d="m43.769 103.846 12.721-13.186-13.139 1.381z"/>
                <path d="m22.67 82.608 11.622-12.038-1.753 9.93z"/>
            </g>
            <ellipse cx="173.849" cy="80.5" rx="14.947" ry="15"/>
            <path d="m217.514 82.577 12.971-12.991-3.025 14.276z"/>
            <path d="m446.83 103.915 13.149-13.179-10.185 3.381z"/>
            <ellipse cx="110.946" cy="80.5" rx="14.947" ry="15"/>
            <ellipse cx="45.495" cy="80.5" rx="14.947" ry="15"/>
            <path d="m240.737 95.5c-8.255 0-14.947-6.716-14.947-15s6.692-15 14.947-15h208.315c8.255 0 14.947 6.716 14.947 15s-6.692 15-14.947 15z"/>
        </g>
        <path d="m135.893 215 226.628 2c5.523 0 10-4.477 10-10l3.479-7v-30c0-5.523-4.477-10-10-10h-224l-6.107 5c-5.523 0-10 4.477-10 10v30c0 5.523 4.477 10 10 10z"/>
        <path d="m376 200v10c0 5.523-4.477 10-10 10h-234c-5.523 0-10-4.477-10-10v-40c0-5.523 4.477-10 10-10h10v33c0 3.866 3.134 7 7 7z"/>
        <g>
            <path d="m151.5 294.5c0-23.196-18.804-42-42-42-7.031 0-13.659 1.728-19.482 4.782-13.386 7.021-19.327 21.053-19.327 37.218 0 23.196 15.613 36.457 38.809 36.457 16.214 0 30.282-3.645 37.282-17.099 3.014-5.792 4.718-12.376 4.718-19.358z"/>
            <path d="m147.47 312.47c-6.73 14.21-21.2 24.03-37.97 24.03-23.2 0-42-18.8-42-42 0-16.77 9.82-31.24 24.03-37.97-2.59 5.45-4.03 11.54-4.03 17.97 0 23.2 18.8 42 42 42 6.43 0 12.52-1.44 17.97-4.03z"/>
        </g>
        <g>
            <g>
                <path d="m149.5 374h-70c-4.142 0-7.5-3.358-7.5-7.5s3.358-7.5 7.5-7.5h70c4.142 0 7.5 3.358 7.5 7.5s-3.358 7.5-7.5 7.5z"/>
            </g>
            <g>
                <path d="m149.5 404h-80c-4.142 0-7.5-3.358-7.5-7.5s3.358-7.5 7.5-7.5h80c4.142 0 7.5 3.358 7.5 7.5s-3.358 7.5-7.5 7.5z"/>
            </g>
            <g>
                <path d="m149.5 434h-80c-4.142 0-7.5-3.358-7.5-7.5s3.358-7.5 7.5-7.5h80c4.142 0 7.5 3.358 7.5 7.5s-3.358 7.5-7.5 7.5z"/>
            </g>
        </g>
        <g>
            <g>
                <path d="m288.5 374h-70c-4.142 0-7.5-3.358-7.5-7.5s3.358-7.5 7.5-7.5h70c4.143 0 7.5 3.358 7.5 7.5s-3.357 7.5-7.5 7.5z"/>
            </g>
            <g>
                <path d="m288.5 404h-80c-4.142 0-7.5-3.358-7.5-7.5s3.358-7.5 7.5-7.5h80c4.143 0 7.5 3.358 7.5 7.5s-3.357 7.5-7.5 7.5z"/>
            </g>
            <g>
                <path d="m288.5 434h-80c-4.142 0-7.5-3.358-7.5-7.5s3.358-7.5 7.5-7.5h80c4.143 0 7.5 3.358 7.5 7.5s-3.357 7.5-7.5 7.5z"/>
            </g>
        </g>
        <g>
            <g>
                <path d="m427.5 374h-70c-4.143 0-7.5-3.358-7.5-7.5s3.357-7.5 7.5-7.5h70c4.143 0 7.5 3.358 7.5 7.5s-3.357 7.5-7.5 7.5z"/>
            </g>
            <g>
                <path d="m427.5 404h-80c-4.143 0-7.5-3.358-7.5-7.5s3.357-7.5 7.5-7.5h80c4.143 0 7.5 3.358 7.5 7.5s-3.357 7.5-7.5 7.5z"/>
            </g>
            <g>
                <path d="m427.5 434h-80c-4.143 0-7.5-3.358-7.5-7.5s3.357-7.5 7.5-7.5h80c4.143 0 7.5 3.358 7.5 7.5s-3.357 7.5-7.5 7.5z"/>
            </g>
        </g>
    </g>
</symbol></svg>