<svg width="38" height="42" viewBox="0 0 38 42" fill="none" xmlns="http://www.w3.org/2000/svg">
<path d="M15.3442 12.9553L15.7327 12.5453C16.6947 11.4383 16.5282 10.9258 15.5847 9.88032L10.5527 4.24282C9.05424 2.56182 8.77674 1.76232 7.35225 3.25882L6.96374 3.66882L15.3442 12.9553ZM14.3637 13.8778L6.22374 4.85782C4.92874 6.78482 1.89474 11.9713 3.39324 15.8048C4.74374 19.2283 5.40974 19.3923 7.09324 21.9548C10.5157 26.2803 14.8262 30.9133 18.1932 34.3983C20.5242 36.2638 20.6167 37.1248 23.7432 38.4983C27.0732 39.9538 31.8832 36.6738 33.6962 35.3003L25.5562 26.2803L23.3732 29.6013C22.7442 30.5443 21.1532 29.4783 20.0432 28.2483C18.1192 26.0958 14.1602 21.7293 12.6432 19.9048C11.5517 18.6953 10.5712 16.9323 11.4222 16.2148L14.3637 13.8778ZM34.7507 34.4803L35.1392 34.0498C36.3972 32.5328 35.6757 32.2048 34.1772 30.5648L29.1082 24.9888C28.1647 23.9843 27.7207 23.7588 26.7587 24.7633L26.3887 25.1938L34.7507 34.4803Z" fill="white"/>
</svg>
