<svg width="131" height="59" viewBox="0 0 131 59" fill="none" xmlns="http://www.w3.org/2000/svg">
<path d="M23.7422 41.5396C22.5667 41.5396 21.3913 41.4416 20.2159 41.2457C19.0731 41.0498 17.963 40.7723 16.8855 40.4131C15.808 40.054 14.8121 39.6458 13.8979 39.1887C12.9837 38.699 12.1838 38.1765 11.4981 37.6215L13.702 34.6829C15.1713 35.793 16.6569 36.6093 18.1589 37.1317C19.6934 37.6215 21.3913 37.8664 23.2524 37.8664C24.5911 37.8664 25.8318 37.6705 26.9746 37.2786C28.15 36.8542 29.1622 36.1848 30.0111 35.2706C30.8927 34.3564 31.5784 33.1973 32.0681 31.7933C32.5579 30.3567 32.8028 28.6262 32.8028 26.6018V9.94989H21.2933V6.27667H39.9043V26.6018C39.9043 29.1159 39.5125 31.3035 38.7289 33.1646C37.9779 35.0257 36.9004 36.5767 35.4965 37.8174C34.0925 39.0581 32.3946 39.9887 30.4029 40.609C28.4112 41.2294 26.191 41.5396 23.7422 41.5396ZM65.3796 8.72548C63.7144 8.72548 62.1472 9.01934 60.6779 9.60705C59.2413 10.1948 57.9842 11.0927 56.9067 12.3007C55.8293 13.5088 54.964 15.0434 54.311 16.9045C53.6906 18.733 53.3805 20.9042 53.3805 23.4184C53.3805 25.9325 53.6906 28.1201 54.311 29.9812C54.964 31.8096 55.8293 33.3279 56.9067 34.536C57.9842 35.7441 59.2413 36.642 60.6779 37.2297C62.1472 37.8174 63.7144 38.1112 65.3796 38.1112C67.0448 38.1112 68.5957 37.8174 70.0324 37.2297C71.5017 36.642 72.7751 35.7441 73.8525 34.536C74.93 33.3279 75.7789 31.8096 76.3993 29.9812C77.0523 28.1201 77.3788 25.9325 77.3788 23.4184C77.3788 20.9042 77.0523 18.733 76.3993 16.9045C75.7789 15.0434 74.93 13.5088 73.8525 12.3007C72.7751 11.0927 71.5017 10.1948 70.0324 9.60705C68.5957 9.01934 67.0448 8.72548 65.3796 8.72548ZM65.3796 5.29714C68.3182 5.29714 70.9793 5.68895 73.3628 6.47257C75.7789 7.25619 77.8359 8.4153 79.5338 9.94989C81.2643 11.4845 82.603 13.3782 83.5498 15.6311C84.4967 17.884 84.9701 20.4798 84.9701 23.4184C84.9701 26.3569 84.4967 28.9527 83.5498 31.2056C82.603 33.4585 81.2643 35.3522 79.5338 36.8868C77.8359 38.4214 75.7789 39.5805 73.3628 40.3642C70.9793 41.1478 68.3182 41.5396 65.3796 41.5396C62.4411 41.5396 59.7637 41.1478 57.3475 40.3642C54.9314 39.5805 52.858 38.4214 51.1275 36.8868C49.4297 35.3522 48.1073 33.4585 47.1605 31.2056C46.2462 28.9527 45.7891 26.3569 45.7891 23.4184C45.7891 20.4798 46.2462 17.884 47.1605 15.6311C48.1073 13.3782 49.4297 11.4845 51.1275 9.94989C52.858 8.4153 54.9314 7.25619 57.3475 6.47257C59.7637 5.68895 62.4411 5.29714 65.3796 5.29714ZM119.028 36.8868V40.5601H90.8664V6.27667H97.968V36.8868H119.028Z" fill="black"/>
<path d="M16.4067 57.125H15.2704L17.876 50.1214H19.0416L21.6667 57.125H20.4913L19.9134 55.4402H16.9846L16.4067 57.125ZM18.4441 51.1205L17.3078 54.5293H19.6097L18.4637 51.1205H18.4441ZM37.1999 57.2621C35.1821 57.2621 34.0459 55.7341 34.0459 53.6183C34.0459 51.5123 35.329 49.9843 37.3273 49.9843C39.1394 49.9843 40.0993 50.954 40.3246 52.2861H39.1982C39.0121 51.4046 38.3558 50.9148 37.3175 50.9148C35.7698 50.9148 35.1723 52.3057 35.1723 53.6183C35.1723 54.9407 35.6229 56.3316 37.2587 56.3316C38.4145 56.3316 39.3353 55.5284 39.3451 54.3627H37.2783V53.4616H40.4422V57.125H39.6977L39.4332 56.1553H39.4137C38.9239 56.8703 38.2676 57.2621 37.1999 57.2621ZM58.8994 57.125H53.8451V50.1214H58.8015V51.0519H54.9225V53.0404H58.3215V53.9709H54.9225V56.1945H58.8994V57.125ZM73.2312 57.125H72.1538V50.1214H73.388L76.64 55.5088H76.6596V50.1214H77.7469V57.125H76.5126L73.2508 51.7376H73.2312V57.125ZM94.3096 57.2621C92.3211 57.2621 91.0379 55.7341 91.0379 53.6281C91.0379 51.5123 92.3309 49.9843 94.3194 49.9843C96.0727 49.9843 97.16 51.1009 97.3265 52.5016H96.2C96.0727 51.816 95.6417 50.9148 94.2998 50.9148C92.7521 50.9148 92.1644 52.2274 92.1644 53.6183C92.1644 55.019 92.7521 56.3316 94.2998 56.3316C95.6515 56.3316 96.1315 55.4304 96.2 54.5782H97.3265C97.1698 56.1357 96.0727 57.2621 94.3096 57.2621ZM113.212 57.125H112.125V54.3236L109.617 50.1214H110.783L112.664 53.4714H112.683L114.564 50.1214H115.72L113.212 54.3236V57.125Z" fill="black"/>
</svg>
