<svg width="238" height="107" viewBox="0 0 238 107" fill="none" xmlns="http://www.w3.org/2000/svg">
<path d="M42.3104 76.1542C40.1507 76.1542 37.991 75.9743 35.8313 75.6143C33.7316 75.2544 31.6919 74.7444 29.7121 74.0845C27.7324 73.4246 25.9026 72.6747 24.2229 71.8348C22.5431 70.935 21.0733 69.9751 19.8135 68.9552L23.8629 63.556C26.5626 65.5957 29.2922 67.0955 32.0518 68.0553C34.8714 68.9552 37.991 69.4052 41.4105 69.4052C43.8702 69.4052 46.1499 69.0452 48.2496 68.3253C50.4093 67.5454 52.2691 66.3156 53.8289 64.6358C55.4486 62.956 56.7085 60.8263 57.6083 58.2467C58.5082 55.607 58.9582 52.4275 58.9582 48.708V18.1121H37.811V11.363H72.0064V48.708C72.0064 53.3273 71.2865 57.3468 69.8467 60.7663C68.4669 64.1859 66.4871 67.0355 63.9075 69.3152C61.3278 71.5949 58.2083 73.3046 54.5488 74.4445C50.8893 75.5843 46.8098 76.1542 42.3104 76.1542ZM118.814 15.8624C115.755 15.8624 112.875 16.4024 110.175 17.4822C107.536 18.5621 105.226 20.2118 103.246 22.4315C101.266 24.6512 99.6767 27.4709 98.4769 30.8904C97.337 34.2499 96.7671 38.2394 96.7671 42.8588C96.7671 47.4781 97.337 51.4976 98.4769 54.9171C99.6767 58.2767 101.266 61.0663 103.246 63.286C105.226 65.5057 107.536 67.1555 110.175 68.2353C112.875 69.3152 115.755 69.8551 118.814 69.8551C121.874 69.8551 124.723 69.3152 127.363 68.2353C130.063 67.1555 132.402 65.5057 134.382 63.286C136.362 61.0663 137.922 58.2767 139.061 54.9171C140.261 51.4976 140.861 47.4781 140.861 42.8588C140.861 38.2394 140.261 34.2499 139.061 30.8904C137.922 27.4709 136.362 24.6512 134.382 22.4315C132.402 20.2118 130.063 18.5621 127.363 17.4822C124.723 16.4024 121.874 15.8624 118.814 15.8624ZM118.814 9.56328C124.213 9.56328 129.103 10.2832 133.482 11.723C137.922 13.1628 141.701 15.2925 144.821 18.1121C148 20.9317 150.46 24.4113 152.2 28.5507C153.939 32.6901 154.809 37.4595 154.809 42.8588C154.809 48.258 153.939 53.0274 152.2 57.1668C150.46 61.3063 148 64.7858 144.821 67.6054C141.701 70.425 137.922 72.5547 133.482 73.9945C129.103 75.4343 124.213 76.1542 118.814 76.1542C113.415 76.1542 108.496 75.4343 104.056 73.9945C99.6167 72.5547 95.8072 70.425 92.6277 67.6054C89.5081 64.7858 87.0784 61.3063 85.3387 57.1668C83.6589 53.0274 82.819 48.258 82.819 42.8588C82.819 37.4595 83.6589 32.6901 85.3387 28.5507C87.0784 24.4113 89.5081 20.9317 92.6277 18.1121C95.8072 15.2925 99.6167 13.1628 104.056 11.723C108.496 10.2832 113.415 9.56328 118.814 9.56328ZM217.386 67.6054V74.3545H165.643V11.363H178.691V67.6054H217.386Z" fill="white"/>
<path d="M28.8324 102.75H26.7447L31.532 89.8817H33.6737L38.4971 102.75H36.3374L35.2755 99.6544H29.8942L28.8324 102.75ZM32.5759 91.7175L30.4882 97.9806H34.7176L32.6119 91.7175H32.5759ZM67.0374 103.002C63.3299 103.002 61.2422 100.194 61.2422 96.3069C61.2422 92.4374 63.5999 89.6298 67.2714 89.6298C70.6009 89.6298 72.3647 91.4115 72.7786 93.8592H70.7089C70.367 92.2394 69.1611 91.3395 67.2534 91.3395C64.4098 91.3395 63.3119 93.8952 63.3119 96.3069C63.3119 98.7365 64.1398 101.292 67.1454 101.292C69.2691 101.292 70.9609 99.8164 70.9789 97.6747H67.1814V96.0189H72.9946V102.75H71.6268L71.1409 100.968H71.1049C70.205 102.282 68.9991 103.002 67.0374 103.002ZM106.907 102.75H97.6207V89.8817H106.728V91.5915H99.6005V95.245H105.846V96.9548H99.6005V101.04H106.907V102.75ZM133.24 102.75H131.261V89.8817H133.528L139.504 99.7804H139.54V89.8817H141.537V102.75H139.27L133.276 92.8513H133.24V102.75ZM171.969 103.002C168.316 103.002 165.958 100.194 165.958 96.3249C165.958 92.4374 168.334 89.6298 171.987 89.6298C175.209 89.6298 177.207 91.6815 177.512 94.2552H175.443C175.209 92.9953 174.417 91.3395 171.951 91.3395C169.108 91.3395 168.028 93.7512 168.028 96.3069C168.028 98.8805 169.108 101.292 171.951 101.292C174.435 101.292 175.317 99.6364 175.443 98.0706H177.512C177.225 100.932 175.209 103.002 171.969 103.002ZM206.701 102.75H204.703V97.6027L200.095 89.8817H202.237L205.693 96.0369H205.729L209.184 89.8817H211.308L206.701 97.6027V102.75Z" fill="white"/>
</svg>
