<svg width="98" height="59" viewBox="0 0 98 59" fill="none" xmlns="http://www.w3.org/2000/svg">
<g clip-path="url(#clip0_4512_45)">
<rect x="2.97283" width="24.9019" height="24.9019" transform="matrix(0.707107 0.707107 0.707107 -0.707107 29.1139 36.7289)" stroke="black" stroke-width="4.20422"/>
<rect x="2.97283" width="24.9019" height="24.9019" transform="matrix(0.707107 0.707107 0.707107 -0.707107 29.1139 19.4799)" stroke="black" stroke-width="4.20422"/>
<path d="M83.4912 30.1522C83.4912 28.3074 81.9717 26.8104 80.0956 26.8104C78.2194 26.8104 76.6999 28.3074 76.6999 30.1522C76.6999 31.997 78.2194 33.494 80.0956 33.494C81.9717 33.494 83.4912 31.997 83.4912 30.1522Z" fill="black" stroke="black" stroke-width="0.107801"/>
<path d="M97.6138 30.1522C97.6138 28.3074 96.0943 26.8104 94.2181 26.8104C92.3419 26.8104 90.8225 28.3074 90.8225 30.1522C90.8225 31.997 92.3419 33.494 94.2181 33.494C96.0943 33.494 97.6138 31.997 97.6138 30.1522Z" fill="black" stroke="black" stroke-width="0.107801"/>
<path d="M6.84546 30.1522C6.84546 28.3074 5.32597 26.8104 3.4498 26.8104C1.57363 26.8104 0.0541444 28.3074 0.0541444 30.1522C0.0541444 31.997 1.57363 33.494 3.4498 33.494C5.32597 33.494 6.84546 31.997 6.84546 30.1522Z" fill="black" stroke="black" stroke-width="0.107801"/>
<path d="M20.9668 30.1522C20.9668 28.3074 19.4473 26.8104 17.5711 26.8104C15.695 26.8104 14.1755 28.3074 14.1755 30.1522C14.1755 31.997 15.695 33.494 17.5711 33.494C19.4473 33.494 20.9668 31.997 20.9668 30.1522Z" fill="black" stroke="black" stroke-width="0.107801"/>
</g>
<defs>
<clipPath id="clip0_4512_45">
<rect width="98" height="59" fill="white"/>
</clipPath>
</defs>
</svg>
