<svg width="135" height="59" viewBox="0 0 135 59" fill="none" xmlns="http://www.w3.org/2000/svg">
<g clip-path="url(#clip0_4512_55)">
<rect x="-3.75887e-07" y="2.97283" width="24.9019" height="24.9019" transform="matrix(-0.707107 0.707107 0.707107 0.707107 46.7214 9.87072)" stroke="black" stroke-width="4.20422"/>
<rect x="-3.75887e-07" y="2.97283" width="24.9019" height="24.9019" transform="matrix(-0.707107 0.707107 0.707107 0.707107 63.9706 9.87072)" stroke="black" stroke-width="4.20422"/>
<rect x="-3.75887e-07" y="2.97283" width="24.9019" height="24.9019" transform="matrix(-0.707107 0.707107 0.707107 0.707107 84.56 9.87072)" stroke="black" stroke-width="4.20422"/>
<path d="M121.312 29.5711C121.312 27.7263 119.792 26.2294 117.916 26.2294C116.04 26.2294 114.52 27.7263 114.52 29.5711C114.52 31.4159 116.04 32.9129 117.916 32.9129C119.792 32.9129 121.312 31.4159 121.312 29.5711Z" fill="black" stroke="black" stroke-width="0.107801"/>
<path d="M135.434 29.5711C135.434 27.7263 133.915 26.2294 132.038 26.2294C130.162 26.2294 128.643 27.7263 128.643 29.5711C128.643 31.4159 130.162 32.9129 132.038 32.9129C133.915 32.9129 135.434 31.4159 135.434 29.5711Z" fill="black" stroke="black" stroke-width="0.107801"/>
<path d="M6.84522 29.5711C6.84522 27.7263 5.32573 26.2294 3.44956 26.2294C1.57338 26.2294 0.0539003 27.7263 0.0539003 29.5711C0.0539003 31.4159 1.57338 32.9129 3.44956 32.9129C5.32573 32.9129 6.84522 31.4159 6.84522 29.5711Z" fill="black" stroke="black" stroke-width="0.107801"/>
<path d="M20.9668 29.5711C20.9668 27.7263 19.4473 26.2294 17.5711 26.2294C15.695 26.2294 14.1755 27.7263 14.1755 29.5711C14.1755 31.4159 15.695 32.9129 17.5711 32.9129C19.4473 32.9129 20.9668 31.4159 20.9668 29.5711Z" fill="black" stroke="black" stroke-width="0.107801"/>
</g>
<defs>
<clipPath id="clip0_4512_55">
<rect width="135" height="59" fill="white"/>
</clipPath>
</defs>
</svg>
