<svg width="98" height="59" viewBox="0 0 98 59" fill="none" xmlns="http://www.w3.org/2000/svg">
<rect x="2.97283" width="24.9019" height="24.9019" transform="matrix(0.707107 0.707107 0.707107 -0.707107 29.1149 27.4789)" stroke="black" stroke-width="4.20422"/>
<path d="M83.491 29.5262C83.491 27.6814 81.9715 26.1845 80.0953 26.1845C78.2191 26.1845 76.6997 27.6814 76.6997 29.5262C76.6997 31.371 78.2191 32.868 80.0953 32.868C81.9715 32.868 83.491 31.371 83.491 29.5262Z" fill="black" stroke="black" stroke-width="0.107801"/>
<path d="M97.6135 29.5262C97.6135 27.6814 96.094 26.1845 94.2179 26.1845C92.3417 26.1845 90.8222 27.6814 90.8222 29.5262C90.8222 31.371 92.3417 32.868 94.2179 32.868C96.094 32.868 97.6135 31.371 97.6135 29.5262Z" fill="black" stroke="black" stroke-width="0.107801"/>
<path d="M6.84522 29.5262C6.84522 27.6814 5.32573 26.1845 3.44956 26.1845C1.57338 26.1845 0.0539003 27.6814 0.0539003 29.5262C0.0539003 31.371 1.57338 32.868 3.44956 32.868C5.32573 32.868 6.84522 31.371 6.84522 29.5262Z" fill="black" stroke="black" stroke-width="0.107801"/>
<path d="M20.9666 29.5262C20.9666 27.6814 19.4471 26.1845 17.5709 26.1845C15.6947 26.1845 14.1752 27.6814 14.1752 29.5262C14.1752 31.371 15.6947 32.868 17.5709 32.868C19.4471 32.868 20.9666 31.371 20.9666 29.5262Z" fill="black" stroke="black" stroke-width="0.107801"/>
</svg>
