<svg width="379" height="379" viewBox="0 0 379 379" fill="none" xmlns="http://www.w3.org/2000/svg">
<circle cx="189.841" cy="189.499" r="189.159" fill="#2F3339"/>
<circle cx="189.841" cy="189.499" r="143.615" fill="#2F3339"/>
<path d="M221.223 233.228H179.083V240.22H221.223V233.228Z" fill="white"/>
<path d="M186.076 188.62H179.083V240.221H186.076V188.62Z" fill="white"/>
<path d="M186.076 152.42V224.826H179.083V171.025C179.083 153.953 184.486 152.413 186.076 152.413V152.42Z" fill="white"/>
<path d="M173.383 222.771V229.473C163.609 227.643 156.195 219.046 156.195 208.749V203.259H162.73V208.749C162.73 215.429 167.247 221.064 173.383 222.771Z" fill="white"/>
<path d="M191.77 139.35H179.076V146.343H191.77V224.826C193.36 224.826 198.762 223.294 198.762 206.215V139.35H191.77Z" fill="white"/>
<path d="M252.353 126.14V253.422H125.064V126.14H252.346M258.881 119.604H118.529V259.957H258.881V119.604Z" fill="white"/>
<path d="M350.052 189.747L350.45 190.834C349.846 191.015 349.38 191.317 349.054 191.741C348.728 192.164 348.556 192.696 348.539 193.334C348.518 194.101 348.737 194.731 349.196 195.225C349.664 195.729 350.321 195.993 351.166 196.016L357.768 196.194L357.736 197.373L350.986 197.191C349.906 197.162 349.021 196.774 348.334 196.028C347.656 195.282 347.331 194.373 347.36 193.302C347.384 192.408 347.631 191.648 348.1 191.022C348.579 190.405 349.229 189.98 350.052 189.747Z" fill="white"/>
<path d="M352.47 200.4C351.217 200.284 350.153 200.58 349.278 201.289C348.413 201.998 347.927 202.92 347.822 204.056C347.717 205.191 348.024 206.187 348.744 207.043C349.474 207.901 350.465 208.388 351.718 208.504C352.941 208.617 353.986 208.32 354.851 207.61C355.716 206.901 356.202 205.978 356.307 204.843C356.413 203.708 356.105 202.712 355.385 201.856C354.665 200.999 353.693 200.514 352.47 200.4ZM352.579 199.226C353.352 199.298 354.064 199.502 354.714 199.839C355.363 200.175 355.897 200.6 356.313 201.112C356.739 201.626 357.055 202.213 357.26 202.874C357.474 203.545 357.548 204.238 357.482 204.952C357.415 205.667 357.216 206.329 356.883 206.94C356.558 207.561 356.14 208.085 355.626 208.511C355.123 208.938 354.52 209.258 353.82 209.469C353.119 209.68 352.382 209.75 351.609 209.678C350.826 209.606 350.105 209.4 349.445 209.063C348.795 208.726 348.252 208.301 347.816 207.786C347.39 207.273 347.07 206.681 346.856 206.009C346.651 205.349 346.581 204.661 346.648 203.947C346.714 203.232 346.909 202.564 347.233 201.943C347.566 201.332 347.99 200.814 348.503 200.388C349.026 199.962 349.638 199.644 350.339 199.433C351.049 199.222 351.796 199.153 352.579 199.226Z" fill="white"/>
<path d="M347.148 212.009L346.28 217.603L345.144 217.427L346.193 210.667L356.391 212.25L356.21 213.416L347.148 212.009Z" fill="white"/>
<path d="M347.669 224.667L346.233 230.584L345.144 230.32L346.58 224.403L347.669 224.667ZM344.053 223.001L344.369 221.697L353.359 228.414L352.997 229.904L341.929 231.755L342.245 230.451L351.975 228.867L344.053 223.001Z" fill="white"/>
<path d="M348.706 237.733C348.192 236.74 347.346 236.052 346.168 235.67C344.99 235.287 343.896 235.346 342.887 235.845C341.887 236.347 341.211 237.14 340.859 238.225C340.531 239.234 340.562 240.205 340.952 241.138C341.351 242.073 342.043 242.742 343.029 243.145L344.385 238.966L345.436 239.307L343.703 244.65C343.559 244.614 343.357 244.553 343.095 244.468C342.151 244.162 341.368 243.66 340.747 242.963C340.136 242.268 339.738 241.472 339.553 240.576C339.378 239.682 339.44 238.777 339.737 237.861C339.958 237.178 340.295 236.569 340.748 236.034C341.207 235.512 341.734 235.099 342.328 234.795C342.923 234.492 343.585 234.315 344.315 234.262C345.054 234.213 345.793 234.308 346.532 234.548C347.27 234.787 347.92 235.143 348.48 235.614C349.049 236.088 349.485 236.622 349.789 237.217C350.092 237.811 350.271 238.453 350.326 239.143C350.388 239.845 350.308 240.537 350.086 241.219C349.77 242.192 349.222 242.99 348.441 243.615C347.656 244.249 346.748 244.626 345.717 244.746L345.554 243.577C346.368 243.49 347.077 243.198 347.683 242.702C348.294 242.219 348.721 241.603 348.964 240.855C349.316 239.771 349.23 238.73 348.706 237.733Z" fill="white"/>
<path d="M342.723 247.563L340.765 252.496L339.696 252.072L341.654 247.139L338.447 245.866L336.359 251.129L335.29 250.705L337.813 244.346L347.406 248.152L344.883 254.511L343.814 254.086L345.902 248.824L342.723 247.563Z" fill="white"/>
<path d="M334.655 252.257L344.004 256.629L343.41 257.898L333.237 259.57L340.943 263.173L340.444 264.241L331.095 259.87L331.695 258.588L341.955 256.973L334.155 253.326L334.655 252.257Z" fill="white"/>
<path d="M332.272 262.819C333.231 262.81 334.162 263.054 335.066 263.553C335.965 264.06 336.666 264.722 337.17 265.538C337.674 266.355 337.933 267.228 337.948 268.157C337.959 269.094 337.729 269.989 337.259 270.841C336.732 271.796 336.001 272.521 335.066 273.015C334.139 273.515 333.13 273.727 332.038 273.652L332.199 272.444C333.041 272.505 333.822 272.34 334.541 271.952C335.261 271.563 335.823 271.003 336.226 270.271C336.786 269.256 336.906 268.205 336.585 267.118C336.272 266.037 335.574 265.197 334.489 264.598C333.413 264.005 332.33 263.862 331.24 264.17C330.15 264.478 329.325 265.139 328.765 266.155C328.352 266.904 328.179 267.695 328.246 268.529C328.317 269.377 328.623 270.146 329.162 270.836L328.24 271.624C327.545 270.747 327.151 269.761 327.059 268.666C326.971 267.585 327.195 266.558 327.732 265.585C328.202 264.733 328.836 264.062 329.635 263.571C330.428 263.088 331.307 262.838 332.272 262.819Z" fill="white"/>
<path d="M322.924 274.19L325.84 276.061L333.784 276.374L333.028 277.553L326.701 277.313L329.701 282.741L328.952 283.907L325.204 277.054L322.287 275.183L322.924 274.19Z" fill="white"/>
<path d="M304.994 300.875L304.528 301.935C303.967 301.646 303.422 301.541 302.894 301.62C302.365 301.7 301.873 301.964 301.418 302.412C300.872 302.951 300.593 303.557 300.581 304.231C300.569 304.919 300.86 305.564 301.453 306.166L306.089 310.87L305.249 311.698L300.51 306.889C299.751 306.119 299.382 305.226 299.403 304.212C299.431 303.204 299.827 302.324 300.59 301.572C301.227 300.945 301.932 300.567 302.704 300.441C303.476 300.328 304.24 300.473 304.994 300.875Z" fill="white"/>
<path d="M299.37 310.186C298.548 309.234 297.576 308.711 296.454 308.615C295.338 308.527 294.349 308.855 293.486 309.601C292.624 310.346 292.155 311.277 292.081 312.394C292.013 313.518 292.39 314.556 293.213 315.508C294.016 316.437 294.976 316.946 296.091 317.034C297.207 317.123 298.196 316.794 299.059 316.048C299.921 315.303 300.39 314.372 300.464 313.255C300.538 312.139 300.174 311.116 299.37 310.186ZM300.263 309.415C300.771 310.002 301.142 310.643 301.377 311.336C301.612 312.029 301.703 312.704 301.648 313.362C301.599 314.028 301.42 314.67 301.11 315.288C300.799 315.921 300.373 316.472 299.83 316.941C299.287 317.41 298.684 317.749 298.02 317.959C297.356 318.182 296.691 318.27 296.026 318.221C295.367 318.18 294.711 317.993 294.06 317.66C293.408 317.327 292.828 316.866 292.321 316.279C291.807 315.684 291.429 315.036 291.187 314.336C290.952 313.643 290.855 312.96 290.897 312.287C290.946 311.621 291.125 310.973 291.436 310.34C291.746 309.722 292.172 309.178 292.715 308.709C293.258 308.239 293.862 307.893 294.526 307.67C295.189 307.46 295.854 307.38 296.519 307.428C297.191 307.484 297.853 307.679 298.504 308.012C299.163 308.352 299.749 308.82 300.263 309.415Z" fill="white"/>
<path d="M287.373 314.933L282.869 318.363L282.172 317.448L287.615 313.304L293.867 321.514L292.929 322.229L287.373 314.933Z" fill="white"/>
<path d="M278.871 324.45L273.734 327.719L273.133 326.774L278.27 323.505L278.871 324.45ZM277.421 320.742L278.553 320.022L280.374 331.096L279.08 331.919L269.821 325.578L270.953 324.858L279.062 330.462L277.421 320.742Z" fill="white"/>
<path d="M270.798 334.425C271.114 333.352 270.979 332.27 270.393 331.179C269.806 330.088 268.976 329.373 267.902 329.035C266.833 328.706 265.796 328.811 264.791 329.351C263.856 329.853 263.207 330.576 262.843 331.519C262.484 332.471 262.521 333.433 262.954 334.405L266.825 332.326L267.348 333.3L262.4 335.958C262.321 335.833 262.217 335.649 262.087 335.407C261.617 334.532 261.399 333.628 261.433 332.695C261.472 331.77 261.735 330.921 262.222 330.146C262.714 329.379 263.385 328.768 264.233 328.312C264.865 327.972 265.53 327.766 266.227 327.693C266.92 327.633 267.586 327.699 268.225 327.891C268.864 328.084 269.465 328.413 270.028 328.881C270.596 329.356 271.064 329.936 271.432 330.62C271.799 331.304 272.022 332.01 272.101 332.738C272.184 333.474 272.129 334.162 271.937 334.801C271.745 335.44 271.43 336.027 270.993 336.563C270.551 337.113 270.015 337.557 269.383 337.897C268.482 338.381 267.534 338.578 266.537 338.488C265.532 338.404 264.616 338.048 263.788 337.421L264.479 336.464C265.127 336.964 265.841 337.244 266.621 337.305C267.398 337.379 268.132 337.23 268.825 336.858C269.829 336.318 270.487 335.507 270.798 334.425Z" fill="white"/>
<path d="M259.604 337.394L254.779 339.606L254.3 338.561L259.125 336.348L257.686 333.212L252.54 335.572L252.061 334.527L258.279 331.675L262.581 341.056L256.363 343.908L255.884 342.863L261.03 340.503L259.604 337.394Z" fill="white"/>
<path d="M250.53 335.178L254.264 344.799L252.958 345.306L244.451 339.483L247.529 347.413L246.429 347.84L242.695 338.219L244.015 337.707L252.545 343.632L249.43 335.605L250.53 335.178Z" fill="white"/>
<path d="M241.403 341.184C242.1 341.843 242.6 342.666 242.904 343.653C243.198 344.642 243.243 345.605 243.038 346.542C242.833 347.48 242.413 348.288 241.779 348.966C241.135 349.648 240.348 350.132 239.418 350.418C238.375 350.739 237.346 350.753 236.33 350.459C235.317 350.175 234.443 349.626 233.71 348.813L234.664 348.056C235.228 348.685 235.904 349.109 236.692 349.33C237.479 349.55 238.273 349.537 239.071 349.291C240.179 348.95 240.995 348.277 241.519 347.272C242.046 346.277 242.127 345.188 241.762 344.004C241.401 342.83 240.721 341.975 239.723 341.439C238.725 340.903 237.672 340.806 236.563 341.147C235.746 341.398 235.072 341.848 234.541 342.495C234.003 343.154 233.689 343.919 233.597 344.791L232.386 344.716C232.496 343.602 232.898 342.62 233.592 341.769C234.28 340.929 235.155 340.346 236.216 340.02C237.146 339.733 238.069 339.691 238.984 339.892C239.891 340.096 240.697 340.527 241.403 341.184Z" fill="white"/>
<path d="M226.818 342.866L227.622 346.236L233.129 351.97L231.766 352.295L227.374 347.735L225.772 353.726L224.424 354.047L226.475 346.51L225.671 343.14L226.818 342.866Z" fill="white"/>
<path d="M195.36 349.602L194.289 350.042C194.085 349.444 193.765 348.991 193.329 348.681C192.893 348.372 192.356 348.221 191.717 348.228C190.95 348.237 190.329 348.48 189.853 348.958C189.367 349.445 189.129 350.111 189.139 350.956L189.215 357.561L188.036 357.575L187.958 350.823C187.945 349.741 188.298 348.843 189.017 348.127C189.737 347.421 190.632 347.061 191.703 347.049C192.598 347.039 193.367 347.256 194.011 347.7C194.645 348.155 195.095 348.789 195.36 349.602Z" fill="white"/>
<path d="M184.226 352.379C184.299 351.124 183.966 350.07 183.228 349.22C182.489 348.38 181.55 347.927 180.412 347.861C179.274 347.795 178.289 348.137 177.458 348.886C176.627 349.645 176.174 350.653 176.102 351.909C176.031 353.135 176.365 354.169 177.104 355.009C177.842 355.849 178.781 356.302 179.919 356.368C181.058 356.434 182.042 356.093 182.873 355.343C183.704 354.594 184.155 353.606 184.226 352.379ZM185.404 352.448C185.359 353.223 185.18 353.941 184.866 354.602C184.552 355.263 184.146 355.811 183.648 356.245C183.15 356.688 182.574 357.024 181.921 357.252C181.257 357.489 180.567 357.587 179.851 357.546C179.135 357.504 178.466 357.328 177.844 357.016C177.212 356.714 176.674 356.313 176.23 355.815C175.786 355.326 175.446 354.736 175.21 354.043C174.975 353.35 174.879 352.616 174.924 351.841C174.97 351.056 175.15 350.328 175.464 349.657C175.778 348.995 176.185 348.438 176.684 347.985C177.182 347.541 177.763 347.2 178.426 346.963C179.079 346.735 179.764 346.642 180.48 346.684C181.197 346.725 181.871 346.897 182.503 347.199C183.125 347.511 183.658 347.916 184.102 348.414C184.545 348.923 184.884 349.523 185.12 350.216C185.355 350.919 185.449 351.663 185.404 352.448Z" fill="white"/>
<path d="M172.322 347.426L166.701 346.751L166.838 345.609L173.63 346.425L172.4 356.671L171.229 356.531L172.322 347.426Z" fill="white"/>
<path d="M159.625 348.333L153.661 347.101L153.888 346.004L159.851 347.236L159.625 348.333ZM161.166 344.662L162.48 344.934L156.074 354.148L154.573 353.838L152.344 342.839L153.658 343.111L155.574 352.78L161.166 344.662Z" fill="white"/>
<path d="M146.911 349.873C147.887 349.325 148.545 348.456 148.887 347.266C149.229 346.075 149.134 344.984 148.601 343.993C148.065 343.01 147.249 342.362 146.153 342.047C145.133 341.754 144.163 341.818 143.245 342.239C142.323 342.67 141.678 343.384 141.31 344.383L145.532 345.596L145.227 346.659L139.828 345.107C139.859 344.963 139.913 344.759 139.989 344.494C140.263 343.54 140.738 342.741 141.414 342.096C142.088 341.462 142.869 341.037 143.759 340.822C144.647 340.617 145.553 340.647 146.479 340.913C147.168 341.111 147.788 341.428 148.339 341.862C148.877 342.303 149.307 342.815 149.63 343.399C149.953 343.982 150.154 344.638 150.231 345.366C150.305 346.103 150.235 346.845 150.021 347.591C149.807 348.338 149.473 348.999 149.022 349.575C148.567 350.16 148.048 350.614 147.464 350.937C146.881 351.26 146.245 351.461 145.558 351.54C144.858 351.625 144.164 351.569 143.474 351.371C142.492 351.088 141.675 350.567 141.024 349.808C140.364 349.045 139.956 348.151 139.801 347.124L140.963 346.922C141.078 347.732 141.394 348.431 141.91 349.019C142.414 349.614 143.044 350.02 143.8 350.237C144.896 350.552 145.933 350.431 146.911 349.873Z" fill="white"/>
<path d="M136.818 344.198L131.821 342.408L132.209 341.326L137.205 343.115L138.369 339.868L133.039 337.959L133.427 336.876L139.867 339.183L136.387 348.898L129.947 346.592L130.334 345.509L135.664 347.418L136.818 344.198Z" fill="white"/>
<path d="M131.883 336.3L127.828 345.79L126.54 345.239L124.528 335.128L121.185 342.95L120.1 342.487L124.156 332.997L125.457 333.553L127.415 343.753L130.799 335.836L131.883 336.3Z" fill="white"/>
<path d="M121.19 334.238C121.231 335.197 121.018 336.136 120.55 337.055C120.073 337.971 119.435 338.694 118.635 339.224C117.836 339.755 116.972 340.043 116.044 340.089C115.108 340.131 114.206 339.931 113.339 339.489C112.367 338.995 111.618 338.288 111.092 337.37C110.563 336.461 110.317 335.459 110.356 334.365L111.568 334.485C111.536 335.329 111.726 336.104 112.138 336.81C112.551 337.517 113.129 338.059 113.874 338.438C114.907 338.964 115.962 339.049 117.037 338.692C118.108 338.343 118.924 337.617 119.486 336.514C120.043 335.419 120.15 334.332 119.806 333.252C119.462 332.173 118.773 331.37 117.739 330.844C116.977 330.456 116.18 330.31 115.349 330.405C114.504 330.504 113.746 330.835 113.074 331.397L112.256 330.501C113.11 329.778 114.082 329.352 115.173 329.223C116.251 329.099 117.285 329.289 118.274 329.793C119.142 330.234 119.834 330.846 120.351 331.627C120.86 332.405 121.14 333.275 121.19 334.238Z" fill="white"/>
<path d="M109.553 325.289L107.78 328.266L107.73 336.215L106.526 335.498L106.557 329.167L101.232 332.344L100.041 331.635L106.767 327.662L108.54 324.685L109.553 325.289Z" fill="white"/>
<path d="M82.3423 308.282L81.2676 307.851C81.5382 307.281 81.625 306.733 81.5282 306.207C81.4314 305.681 81.1515 305.198 80.6884 304.758C80.1327 304.23 79.5177 303.971 78.8436 303.981C78.1556 303.991 77.5205 304.303 76.9381 304.916L72.388 309.703L71.5331 308.891L76.1848 303.996C76.9296 303.213 77.8094 302.815 78.8241 302.803C79.8321 302.798 80.7243 303.165 81.5009 303.903C82.1492 304.519 82.5492 305.211 82.7008 305.979C82.8386 306.747 82.719 307.515 82.3423 308.282Z" fill="white"/>
<path d="M72.877 302.997C73.8015 302.143 74.2931 301.154 74.352 300.03C74.4037 298.912 74.0428 297.934 73.2695 297.097C72.4961 296.259 71.5503 295.821 70.4319 295.783C69.3064 295.752 68.2814 296.163 67.3569 297.017C66.4542 297.85 65.9769 298.826 65.9253 299.943C65.8736 301.061 66.2345 302.039 67.0078 302.877C67.7812 303.715 68.727 304.152 69.8453 304.19C70.9637 304.228 71.9742 303.83 72.877 302.997ZM73.677 303.863C73.1065 304.39 72.4787 304.782 71.7937 305.04C71.1087 305.298 70.4365 305.41 69.777 305.377C69.1103 305.35 68.4628 305.192 67.8345 304.903C67.1923 304.613 66.6278 304.204 66.1411 303.677C65.6545 303.15 65.2956 302.558 65.0645 301.902C64.8195 301.245 64.7103 300.583 64.7369 299.917C64.7564 299.257 64.9219 298.596 65.2336 297.933C65.5453 297.271 65.9864 296.677 66.5569 296.15C67.1347 295.617 67.7697 295.218 68.4619 294.953C69.1469 294.696 69.8264 294.577 70.5003 294.597C71.1669 294.623 71.8214 294.782 72.4636 295.072C73.0919 295.361 73.6495 295.769 74.1361 296.297C74.6228 296.824 74.9886 297.416 75.2337 298.072C75.4648 298.729 75.567 299.39 75.5403 300.057C75.5065 300.73 75.3337 301.398 75.022 302.06C74.7031 302.729 74.2548 303.33 73.677 303.863Z" fill="white"/>
<path d="M67.7659 291.201L64.1903 286.811L65.0819 286.085L69.4024 291.389L61.401 297.907L60.6561 296.992L67.7659 291.201Z" fill="white"/>
<path d="M58.0043 283.076L54.568 278.05L55.493 277.417L58.9293 282.444L58.0043 283.076ZM61.6623 281.504L62.4194 282.612L51.4119 284.797L50.5466 283.531L56.5786 274.068L57.3357 275.175L52.0016 283.465L61.6623 281.504Z" fill="white"/>
<path d="M47.7584 275.344C48.8418 275.624 49.9189 275.453 50.9898 274.831C52.0607 274.209 52.7471 273.356 53.0491 272.271C53.3426 271.191 53.203 270.158 52.6303 269.172C52.0972 268.254 51.3533 267.629 50.3988 267.297C49.4358 266.97 48.4756 267.039 47.5182 267.504L49.7249 271.303L48.7688 271.859L45.9475 267.001C46.07 266.919 46.2503 266.808 46.4883 266.67C47.3467 266.172 48.2428 265.924 49.1767 265.927C50.1021 265.935 50.9602 266.17 51.751 266.631C52.5334 267.097 53.1664 267.747 53.6502 268.58C54.0106 269.2 54.239 269.858 54.3353 270.552C54.4182 271.243 54.3742 271.91 54.2032 272.555C54.0322 273.2 53.7226 273.812 53.2744 274.391C52.8177 274.974 52.2536 275.461 51.5822 275.851C50.9108 276.241 50.2127 276.487 49.488 276.59C48.7549 276.697 48.0658 276.666 47.4209 276.495C46.776 276.324 46.1784 276.029 45.628 275.61C45.0642 275.187 44.6021 274.665 44.2417 274.045C43.7283 273.161 43.4998 272.22 43.5561 271.221C43.6075 270.213 43.9325 269.286 44.5312 268.438L45.5106 269.096C45.0325 269.761 44.7761 270.484 44.7414 271.265C44.6933 272.043 44.8667 272.772 45.2616 273.452C45.8343 274.438 46.6665 275.069 47.7584 275.344Z" fill="white"/>
<path d="M44.4772 264.391L42.1047 259.644L43.1334 259.13L45.5059 263.877L48.592 262.335L46.0613 257.271L47.09 256.757L50.1479 262.876L40.916 267.489L37.8582 261.37L38.8869 260.856L41.4175 265.92L44.4772 264.391Z" fill="white"/>
<path d="M46.3879 255.29L36.898 259.345L36.3475 258.057L41.8814 249.359L34.0589 252.702L33.5954 251.618L43.0854 247.562L43.6416 248.863L38.0071 257.589L45.9244 254.205L46.3879 255.29Z" fill="white"/>
<path d="M39.9712 246.118C39.3357 246.837 38.5301 247.365 37.5547 247.702C36.576 248.029 35.6148 248.107 34.6711 247.934C33.7274 247.76 32.9056 247.368 32.2058 246.757C31.5028 246.137 30.9924 245.367 30.6746 244.448C30.3184 243.416 30.2698 242.388 30.5291 241.363C30.779 240.34 31.2977 239.449 32.0852 238.688L32.8739 239.617C32.2649 240.201 31.8636 240.891 31.6703 241.686C31.4769 242.481 31.5166 243.273 31.7894 244.062C32.1682 245.159 32.8684 245.951 33.8902 246.441C34.9027 246.933 35.9942 246.977 37.1647 246.573C38.326 246.172 39.1575 245.463 39.6593 244.447C40.1611 243.432 40.2226 242.376 39.8439 241.28C39.5646 240.471 39.0927 239.813 38.4282 239.304C37.7512 238.789 36.9756 238.501 36.1015 238.439L36.1349 237.226C37.2516 237.298 38.2472 237.667 39.1217 238.331C39.9836 238.99 40.596 239.845 40.9587 240.894C41.2764 241.814 41.3502 242.735 41.18 243.657C41.0065 244.57 40.6036 245.39 39.9712 246.118Z" fill="white"/>
<path d="M37.8634 231.844L34.5228 232.763L28.9802 238.462L28.6087 237.112L33.016 232.566L26.9743 231.17L26.6067 229.833L34.21 231.626L37.5506 230.707L37.8634 231.844Z" fill="white"/>
<path d="M30.0069 200.571L29.534 199.514C30.1247 199.292 30.568 198.959 30.8639 198.513C31.1597 198.068 31.2941 197.526 31.267 196.888C31.2345 196.122 30.9723 195.508 30.4805 195.047C29.9785 194.576 29.3052 194.359 28.4607 194.395L21.8617 194.675L21.8116 193.497L28.5579 193.21C29.6381 193.164 30.5472 193.49 31.2851 194.186C32.0132 194.883 32.4 195.767 32.4454 196.838C32.4834 197.731 32.29 198.507 31.8654 199.164C31.4306 199.812 30.8111 200.281 30.0069 200.571Z" fill="white"/>
<path d="M26.8541 189.393C28.1118 189.427 29.154 189.062 29.9809 188.298C30.798 187.533 31.222 186.581 31.2528 185.442C31.2836 184.302 30.9117 183.328 30.1371 182.521C29.3526 181.713 28.3316 181.292 27.074 181.258C25.8458 181.225 24.8232 181.59 24.0061 182.355C23.189 183.119 22.7651 184.072 22.7343 185.211C22.7035 186.351 23.0754 187.325 23.85 188.132C24.6246 188.94 25.626 189.36 26.8541 189.393ZM26.8223 190.572C26.0461 190.551 25.3227 190.394 24.6522 190.101C23.9817 189.807 23.4219 189.419 22.9729 188.934C22.514 188.45 22.1606 187.885 21.9126 187.239C21.655 186.583 21.5359 185.897 21.5553 185.179C21.5746 184.462 21.7305 183.788 22.0229 183.157C22.3057 182.515 22.6893 181.965 23.1736 181.507C23.6482 181.047 24.2281 180.689 24.9135 180.433C25.5989 180.176 26.3297 180.058 27.1058 180.079C27.8919 180.1 28.625 180.258 29.3054 180.551C29.9759 180.845 30.5455 181.234 31.0142 181.718C31.473 182.203 31.8313 182.773 32.0888 183.429C32.3369 184.075 32.4512 184.756 32.4318 185.473C32.4124 186.191 32.2613 186.87 31.9785 187.511C31.6862 188.142 31.2978 188.687 30.8134 189.146C30.3193 189.605 29.7295 189.963 29.0441 190.219C28.3489 190.476 27.6083 190.594 26.8223 190.572Z" fill="white"/>
<path d="M31.4073 177.374L31.9088 171.735L33.0543 171.837L32.4483 178.651L22.1686 177.737L22.273 176.562L31.4073 177.374Z" fill="white"/>
<path d="M30.0659 164.696L31.115 158.698L32.2188 158.891L31.1696 164.889L30.0659 164.696ZM33.7823 166.125L33.5511 167.446L24.1448 161.326L24.409 159.815L35.3345 157.251L35.1033 158.573L25.4968 160.784L33.7823 166.125Z" fill="white"/>
<path d="M28.0739 152.162C28.6549 153.118 29.546 153.747 30.7473 154.048C31.9485 154.349 33.0356 154.216 34.0086 153.65C34.9721 153.081 35.5925 152.243 35.8697 151.137C36.1279 150.107 36.0308 149.141 35.5785 148.237C35.1166 147.331 34.3804 146.71 33.3699 146.376L32.3015 150.638L31.2289 150.369L32.5949 144.92C32.7403 144.947 32.9465 144.993 33.2135 145.06C34.1764 145.301 34.9913 145.749 35.6584 146.403C36.3159 147.054 36.7671 147.821 37.012 148.703C37.2474 149.583 37.248 150.49 37.0138 151.424C36.8393 152.12 36.5445 152.75 36.1293 153.315C35.707 153.868 35.2096 154.315 34.6373 154.658C34.0649 155.001 33.4164 155.224 32.6916 155.326C31.9573 155.425 31.2136 155.381 30.4604 155.192C29.7073 155.003 29.0352 154.693 28.4443 154.261C27.8439 153.827 27.3722 153.323 27.0294 152.751C26.6865 152.179 26.464 151.55 26.362 150.866C26.2528 150.17 26.2854 149.474 26.4599 148.778C26.7085 147.786 27.2013 146.952 27.9384 146.276C28.6778 145.59 29.5578 145.152 30.5782 144.962L30.8206 146.117C30.0147 146.259 29.3268 146.599 28.7567 147.135C28.1794 147.659 27.7952 148.302 27.604 149.065C27.3267 150.171 27.4833 151.203 28.0739 152.162Z" fill="white"/>
<path d="M33.3706 141.943L34.9899 136.889L36.085 137.24L34.4657 142.294L37.7511 143.347L39.4784 137.955L40.5736 138.306L38.4864 144.821L28.6582 141.672L30.7454 135.157L31.8405 135.508L30.1132 140.9L33.3706 141.943Z" fill="white"/>
<path d="M41.125 136.63L31.5039 132.896L32.0107 131.59L42.0483 129.239L34.1178 126.161L34.5445 125.061L44.1656 128.796L43.6535 130.115L33.525 132.415L41.5517 135.53L41.125 136.63Z" fill="white"/>
<path d="M42.7413 126.024C41.7846 126.098 40.8389 125.916 39.904 125.479C38.9733 125.033 38.2295 124.419 37.6725 123.638C37.1156 122.856 36.7986 122.003 36.7215 121.077C36.6486 120.142 36.8183 119.234 37.2304 118.353C37.6926 117.365 38.3737 116.593 39.2737 116.037C40.1648 115.477 41.1578 115.198 42.2527 115.2L42.1725 116.416C41.3282 116.412 40.5599 116.628 39.8678 117.063C39.1758 117.499 38.6528 118.096 38.2989 118.853C37.8076 119.903 37.7584 120.96 38.1512 122.022C38.5351 123.081 39.288 123.872 40.4099 124.397C41.5228 124.917 42.6129 124.988 43.6803 124.608C44.7476 124.228 45.5269 123.513 46.0182 122.462C46.3804 121.688 46.5001 120.886 46.3772 120.059C46.2496 119.218 45.8936 118.471 45.3093 117.818L46.1774 116.97C46.9291 117.799 47.3874 118.757 47.5522 119.843C47.7123 120.916 47.5571 121.956 47.0866 122.962C46.6744 123.843 46.0863 124.556 45.3223 125.099C44.5624 125.633 43.7021 125.942 42.7413 126.024Z" fill="white"/>
<path d="M51.3346 113.978L48.3009 112.304L40.3539 112.517L41.0305 111.291L47.3594 111.112L44.0071 105.895L44.6765 104.681L48.8706 111.272L51.9043 112.945L51.3346 113.978Z" fill="white"/>
<path d="M67.2435 86.3443L67.6396 85.2561C68.2182 85.5078 68.7687 85.5767 69.2911 85.4628C69.8136 85.3488 70.2872 85.0532 70.7119 84.576C71.2216 84.0033 71.4604 83.3802 71.4281 82.7068C71.3951 82.0195 71.0628 81.3949 70.4314 80.8329L65.4975 76.4418L66.2816 75.5608L71.3257 80.0499C72.1333 80.7687 72.5597 81.635 72.6048 82.6488C72.6425 83.656 72.3053 84.5598 71.593 85.3601C70.9984 86.0283 70.3198 86.4507 69.5574 86.6273C68.7941 86.7901 68.0228 86.6958 67.2435 86.3443Z" fill="white"/>
<path d="M72.1839 76.6965C73.0671 77.5925 74.0715 78.0516 75.1973 78.0737C76.3162 78.0888 77.2816 77.6961 78.0937 76.8958C78.9057 76.0955 79.3123 75.1358 79.3135 74.0169C79.3078 72.8909 78.8634 71.8799 77.9802 70.9838C77.1178 70.1088 76.1272 69.6637 75.0083 69.6486C73.8894 69.6336 72.924 70.0262 72.1119 70.8265C71.2999 71.6268 70.8933 72.5865 70.8921 73.7055C70.8909 74.8244 71.3215 75.8214 72.1839 76.6965ZM71.3439 77.5244C70.7989 76.9714 70.3863 76.3568 70.1063 75.6806C69.8262 75.0044 69.6921 74.3362 69.7038 73.676C69.7087 73.0088 69.8455 72.3565 70.1142 71.719C70.383 71.0676 70.773 70.4901 71.284 69.9865C71.795 69.4828 72.3746 69.1048 73.0228 68.8523C73.6711 68.586 74.3289 68.4552 74.9961 68.4601C75.6564 68.4579 76.3225 68.6018 76.9946 68.8916C77.6667 69.1814 78.2752 69.6029 78.8203 70.1559C79.3722 70.7159 79.7917 71.3376 80.0786 72.0208C80.3587 72.697 80.4997 73.3722 80.5018 74.0463C80.4969 74.7135 80.3601 75.3728 80.0912 76.0242C79.8225 76.6616 79.4326 77.2322 78.9216 77.7359C78.4105 78.2395 77.8309 78.6245 77.1826 78.8909C76.5344 79.1433 75.8767 79.2671 75.2095 79.2623C74.5354 79.2504 73.8623 79.0996 73.1903 78.8097C72.5113 78.5129 71.8958 78.0844 71.3439 77.5244Z" fill="white"/>
<path d="M83.7295 71.2268L87.9994 67.5093L88.7545 68.3767L83.595 72.8686L76.8184 65.0849L77.708 64.3104L83.7295 71.2268Z" fill="white"/>
<path d="M91.4539 61.1981L96.3648 57.5983L97.0273 58.502L92.1163 62.1018L91.4539 61.1981ZM93.1454 64.8024L92.0633 65.5955L89.5173 54.6658L90.754 53.7593L100.411 59.4768L99.3286 60.27L90.8678 55.2114L93.1454 64.8024Z" fill="white"/>
<path d="M98.962 50.576C98.7179 51.668 98.9245 52.7389 99.5816 53.7886C100.239 54.8383 101.114 55.4961 102.208 55.7621C103.297 56.0197 104.325 55.846 105.291 55.241C106.191 54.6777 106.791 53.9136 107.092 52.9487C107.387 51.9754 107.286 51.018 106.79 50.0765L103.066 52.4077L102.479 51.4705L107.24 48.4899C107.327 48.6097 107.443 48.7862 107.589 49.0195C108.116 49.8609 108.393 50.7484 108.421 51.6818C108.443 52.607 108.237 53.4724 107.802 54.2781C107.362 55.0754 106.734 55.7296 105.917 56.2407C105.309 56.6214 104.66 56.8714 103.969 56.9907C103.282 57.0964 102.613 57.0745 101.962 56.9249C101.312 56.7754 100.691 56.4862 100.097 56.0574C99.499 55.6202 98.9939 55.0726 98.5819 54.4144C98.1699 53.7563 97.9006 53.0668 97.774 52.3459C97.6422 51.6167 97.6511 50.927 97.8006 50.2767C97.9502 49.6265 98.2253 49.0194 98.626 48.4555C99.0298 47.878 99.5358 47.3989 100.144 47.0182C101.01 46.4758 101.944 46.2163 102.944 46.2395C103.952 46.2575 104.89 46.5517 105.758 47.122L105.132 48.1226C104.452 47.6668 103.721 47.4345 102.939 47.4256C102.159 47.4033 101.436 47.6007 100.77 48.0179C99.8034 48.6229 99.2008 49.4756 98.962 50.576Z" fill="white"/>
<path d="M109.471 47.0795L114.137 44.5502L114.685 45.5612L110.019 48.0905L111.663 51.1235L116.64 48.4256L117.188 49.4366L111.174 52.6966L106.256 43.6234L112.27 40.3635L112.818 41.3745L107.841 44.0724L109.471 47.0795Z" fill="white"/>
<path d="M118.608 48.646L114.236 39.2973L115.505 38.704L124.384 43.9431L120.78 36.2372L121.849 35.7376L126.22 45.0862L124.938 45.6858L116.029 40.3469L119.676 48.1463L118.608 48.646Z" fill="white"/>
<path d="M128.109 41.658C127.369 41.0471 126.814 40.2598 126.445 39.2963C126.084 38.3293 125.974 37.3713 126.115 36.4223C126.256 35.4732 126.62 34.6387 127.207 33.9186C127.803 33.195 128.556 32.6589 129.464 32.3102C130.483 31.9193 131.509 31.8361 132.542 32.0605C133.573 32.2757 134.481 32.764 135.268 33.5253L134.367 34.345C133.762 33.756 133.059 33.3783 132.258 33.2119C131.457 33.0455 130.667 33.112 129.887 33.4114C128.804 33.827 128.035 34.5536 127.581 35.5913C127.123 36.6199 127.116 37.7122 127.559 38.8684C128 40.0155 128.736 40.8226 129.768 41.2897C130.8 41.7569 131.857 41.7827 132.94 41.3671C133.738 41.0607 134.381 40.5669 134.867 39.8855C135.358 39.1915 135.62 38.4066 135.653 37.5309L136.866 37.5233C136.832 38.6418 136.497 39.6492 135.862 40.5457C135.233 41.4294 134.4 42.0703 133.363 42.4683C132.454 42.8169 131.537 42.9218 130.609 42.7828C129.691 42.6403 128.858 42.2654 128.109 41.658Z" fill="white"/>
<path d="M141.818 39.2109L140.786 35.9035L134.901 30.5582L136.238 30.141L140.932 34.3908L142.121 28.3051L143.444 27.8923L141.912 35.5522L142.944 38.8595L141.818 39.2109Z" fill="white"/>
<path d="M172.651 30.1823L173.691 29.6731C173.933 30.2557 174.282 30.6871 174.737 30.9674C175.193 31.2476 175.739 31.3632 176.376 31.3139C177.14 31.2548 177.745 30.9715 178.188 30.464C178.641 29.946 178.835 29.2656 178.77 28.4228L178.261 21.8375L179.437 21.7466L179.957 28.4789C180.041 29.5569 179.747 30.4766 179.076 31.2383C178.405 31.9901 177.535 32.4073 176.467 32.4899C175.575 32.5588 174.793 32.3925 174.122 31.991C173.459 31.5788 172.969 30.976 172.651 30.1823Z" fill="white"/>
<path d="M183.107 26.6347C183.121 27.8927 183.526 28.9201 184.322 29.7169C185.117 30.5039 186.085 30.8907 187.225 30.8775C188.365 30.8643 189.324 30.4551 190.101 29.65C190.878 28.8349 191.259 27.7984 191.244 26.5404C191.23 25.3119 190.825 24.3042 190.03 23.5172C189.234 22.7302 188.267 22.3433 187.127 22.3565C185.987 22.3697 185.028 22.7789 184.251 23.5841C183.474 24.3893 183.093 25.4061 183.107 26.6347ZM181.927 26.6483C181.918 25.8719 182.048 25.143 182.315 24.4617C182.582 23.7804 182.949 23.206 183.415 22.7386C183.882 22.2614 184.433 21.8864 185.069 21.6136C185.714 21.3309 186.395 21.1854 187.113 21.1771C187.83 21.1688 188.51 21.2986 189.152 21.5664C189.804 21.8242 190.368 22.1863 190.846 22.6526C191.323 23.109 191.703 23.6747 191.986 24.3497C192.269 25.0246 192.415 25.7503 192.424 26.5268C192.433 27.313 192.304 28.0517 192.037 28.7429C191.769 29.4242 191.403 30.0084 190.936 30.4954C190.47 30.9727 189.914 31.3526 189.269 31.6353C188.633 31.9081 187.956 32.0486 187.239 32.0569C186.521 32.0652 185.837 31.9405 185.185 31.6826C184.543 31.4148 183.984 31.0478 183.506 30.5815C183.029 30.1054 182.649 29.5298 182.366 28.8549C182.083 28.1701 181.936 27.4346 181.927 26.6483Z" fill="white"/>
<path d="M196.045 30.7215L201.698 31.0272L201.636 32.1754L194.805 31.8061L195.363 21.5009L196.54 21.5645L196.045 30.7215Z" fill="white"/>
<path d="M208.865 28.9336L214.896 29.7753L214.741 30.885L208.71 30.0433L208.865 28.9336ZM207.566 32.697L206.237 32.5116L212.03 22.8998L213.548 23.1117L216.487 33.9423L215.159 33.7568L212.618 24.2323L207.566 32.697Z" fill="white"/>
<path d="M221.392 26.5032C220.456 27.1167 219.858 28.0288 219.598 29.2397C219.338 30.4505 219.508 31.5325 220.108 32.4855C220.71 33.4289 221.568 34.0202 222.683 34.2594C223.721 34.4821 224.683 34.352 225.571 33.8689C226.461 33.3763 227.056 32.6193 227.355 31.5979L223.06 30.6761L223.292 29.595L228.784 30.7735C228.762 30.9197 228.723 31.1274 228.665 31.3965C228.457 32.3671 228.038 33.1969 227.407 33.8859C226.779 34.5654 226.028 35.0426 225.155 35.3176C224.284 35.583 223.377 35.6147 222.435 35.4126C221.734 35.2621 221.094 34.989 220.515 34.5934C219.948 34.1903 219.484 33.7086 219.121 33.1483C218.759 32.5881 218.514 31.9475 218.388 31.2267C218.263 30.4962 218.282 29.7514 218.445 28.9922C218.608 28.233 218.895 27.5507 219.306 26.9454C219.72 26.3304 220.207 25.8418 220.767 25.4795C221.327 25.1172 221.948 24.8733 222.628 24.7479C223.32 24.6149 224.017 24.6237 224.718 24.7743C225.718 24.9887 226.568 25.4527 227.269 26.1661C227.98 26.8817 228.448 27.7461 228.673 28.7594L227.527 29.0412C227.357 28.2407 226.994 27.5648 226.439 27.0134C225.896 26.4544 225.24 26.0924 224.471 25.9275C223.356 25.6883 222.33 25.8802 221.392 26.5032Z" fill="white"/>
<path d="M231.862 31.4498L236.969 32.8962L236.655 34.0026L231.549 32.5562L230.609 35.8756L236.056 37.4184L235.742 38.5249L229.16 36.6606L231.973 26.7309L238.555 28.5952L238.241 29.7016L232.794 28.1588L231.862 31.4498Z" fill="white"/>
<path d="M237.577 39.0524L240.984 29.3107L242.306 29.773L244.995 39.7255L247.803 31.6955L248.917 32.0848L245.51 41.8266L244.174 41.3594L241.533 31.3144L238.691 39.4418L237.577 39.0524Z" fill="white"/>
<path d="M248.245 40.3053C248.14 39.3516 248.29 38.4003 248.696 37.4513C249.11 36.5062 249.699 35.7422 250.461 35.1594C251.223 34.5765 252.065 34.2311 252.988 34.123C253.92 34.0189 254.833 34.158 255.728 34.5404C256.731 34.9691 257.525 35.6239 258.111 36.5048C258.7 37.3766 259.012 38.3598 259.047 39.4541L257.829 39.4147C257.805 38.5707 257.564 37.8101 257.105 37.1331C256.646 36.456 256.032 35.9532 255.264 35.6249C254.198 35.1691 253.14 35.1554 252.091 35.5836C251.046 36.0028 250.28 36.7818 249.794 37.9206C249.311 39.0504 249.277 40.1422 249.692 41.1962C250.108 42.2502 250.849 43.0051 251.915 43.4609C252.702 43.797 253.506 43.8897 254.33 43.7392C255.166 43.5834 255.9 43.2026 256.533 42.5967L257.409 43.436C256.606 44.215 255.664 44.7051 254.584 44.9062C253.517 45.1022 252.473 44.9819 251.452 44.5455C250.557 44.1631 249.825 43.5992 249.257 42.8538C248.697 42.1123 248.36 41.2628 248.245 40.3053Z" fill="white"/>
<path d="M260.675 48.5312L262.247 45.4435L261.769 37.5081L263.018 38.1434L263.407 44.4628L268.51 40.9389L269.745 41.5675L263.298 45.9785L261.726 49.0663L260.675 48.5312Z" fill="white"/>
<path d="M288.915 63.5761L290.015 63.9364C289.782 64.5229 289.732 65.0754 289.863 65.5938C289.994 66.1123 290.305 66.5759 290.795 66.9848C291.384 67.4755 292.015 67.6937 292.687 67.6394C293.373 67.5839 293.986 67.2314 294.527 66.5819L298.755 61.5069L299.661 62.2617L295.339 67.4501C294.647 68.2808 293.795 68.7353 292.784 68.8135C291.778 68.8842 290.864 68.5768 290.041 67.8911C289.353 67.3186 288.909 66.6543 288.707 65.898C288.52 65.1404 288.589 64.3665 288.915 63.5761Z" fill="white"/>
<path d="M298.742 68.2209C297.875 69.1328 297.449 70.1517 297.464 71.2776C297.485 72.3964 297.909 73.3485 298.736 74.1339C299.562 74.9194 300.535 75.2944 301.653 75.259C302.778 75.2164 303.774 74.7392 304.641 73.8273C305.487 72.9367 305.9 71.932 305.878 70.8133C305.857 69.6945 305.433 68.7424 304.606 67.957C303.78 67.1715 302.807 66.7965 301.689 66.8319C300.57 66.8673 299.588 67.3303 298.742 68.2209ZM297.887 67.4083C298.422 66.8455 299.022 66.4131 299.689 66.1111C300.356 65.8091 301.019 65.6531 301.68 65.6433C302.346 65.6263 303.003 65.7417 303.649 65.9895C304.309 66.2369 304.899 66.6077 305.419 67.102C305.939 67.5963 306.336 68.1632 306.609 68.8028C306.896 69.4421 307.049 70.0952 307.066 70.7622C307.089 71.4221 306.967 72.0926 306.7 72.7738C306.432 73.455 306.031 74.077 305.496 74.6398C304.954 75.2098 304.346 75.6493 303.673 75.9584C303.006 76.2604 302.336 76.4235 301.662 76.4476C300.995 76.4646 300.332 76.3493 299.672 76.1019C299.026 75.8542 298.443 75.4832 297.923 74.9889C297.403 74.4946 296.999 73.9278 296.712 73.2886C296.438 72.649 296.293 71.9957 296.276 71.3287C296.266 70.6546 296.395 69.9769 296.662 69.2957C296.937 68.6074 297.345 67.9783 297.887 67.4083Z" fill="white"/>
<path d="M304.604 79.6041L308.459 83.7501L307.617 84.5332L302.958 79.5234L310.516 72.4958L311.319 73.3595L304.604 79.6041Z" fill="white"/>
<path d="M314.898 87.0302L318.657 91.8203L317.776 92.512L314.017 87.7219L314.898 87.0302ZM311.352 88.839L310.523 87.7836L321.364 84.8802L322.31 86.0864L316.913 95.9256L316.084 94.8702L320.863 86.2479L311.352 88.839Z" fill="white"/>
<path d="M325.746 94.1785C324.647 93.9706 323.583 94.2123 322.556 94.9038C321.528 95.5952 320.9 96.492 320.67 97.5943C320.448 98.6912 320.656 99.7125 321.292 100.658C321.885 101.539 322.669 102.114 323.643 102.382C324.625 102.645 325.579 102.513 326.504 101.985L324.051 98.3403L324.968 97.723L328.104 102.383C327.987 102.474 327.815 102.596 327.586 102.749C326.763 103.304 325.885 103.61 324.953 103.669C324.029 103.722 323.157 103.544 322.338 103.136C321.526 102.722 320.852 102.116 320.314 101.317C319.913 100.722 319.642 100.081 319.5 99.3945C319.372 98.7108 319.372 98.0416 319.5 97.3868C319.628 96.732 319.896 96.1011 320.305 95.4941C320.722 94.8817 321.253 94.3587 321.897 93.9252C322.541 93.4917 323.222 93.1998 323.938 93.0495C324.662 92.8937 325.352 92.8799 326.007 93.0079C326.662 93.1359 327.277 93.3908 327.854 93.7727C328.445 94.1573 328.94 94.6472 329.341 95.2425C329.912 96.0905 330.202 97.0148 330.212 98.0152C330.227 99.0238 329.964 99.9708 329.422 100.856L328.402 100.264C328.835 99.5695 329.043 98.8312 329.026 98.0489C329.023 97.2693 328.801 96.5533 328.362 95.9009C327.726 94.955 326.854 94.3809 325.746 94.1785Z" fill="white"/>
<path d="M329.632 104.658L332.315 109.237L331.323 109.819L328.64 105.239L325.663 106.983L328.525 111.868L327.532 112.449L324.075 106.546L332.98 101.33L336.437 107.232L335.445 107.814L332.583 102.929L329.632 104.658Z" fill="white"/>
<path d="M328.366 113.866L337.563 109.185L338.199 110.433L333.259 119.482L340.84 115.623L341.375 116.674L332.178 121.356L331.536 120.094L336.574 111.012L328.901 114.917L328.366 113.866Z" fill="white"/>
<path d="M335.552 122.906C336.138 122.146 336.906 121.565 337.856 121.163C338.811 120.77 339.764 120.628 340.718 120.737C341.671 120.846 342.517 121.182 343.257 121.744C344 122.315 344.561 123.049 344.94 123.945C345.365 124.95 345.483 125.973 345.293 127.013C345.113 128.05 344.656 128.975 343.921 129.787L343.072 128.914C343.64 128.289 343.994 127.574 344.133 126.768C344.272 125.962 344.179 125.174 343.854 124.405C343.402 123.337 342.65 122.593 341.597 122.174C340.554 121.75 339.462 121.78 338.322 122.263C337.19 122.741 336.408 123.504 335.976 124.551C335.544 125.598 335.554 126.656 336.005 127.724C336.338 128.512 336.854 129.137 337.551 129.6C338.261 130.068 339.054 130.303 339.931 130.306L339.979 131.518C338.86 131.522 337.842 131.222 336.925 130.617C336.02 130.018 335.352 129.207 334.919 128.184C334.54 127.288 334.404 126.374 334.512 125.443C334.624 124.52 334.97 123.675 335.552 122.906Z" fill="white"/>
<path d="M338.526 136.726L341.796 135.583L346.939 129.52L347.401 130.842L343.313 135.677L349.436 136.659L349.893 137.968L342.186 136.696L338.915 137.84L338.526 136.726Z" fill="white"/>
</svg>
