<svg width="208" height="478" viewBox="0 0 208 478" fill="none" xmlns="http://www.w3.org/2000/svg">
<path fill-rule="evenodd" clip-rule="evenodd" d="M207.359 477.362L144.911 477.362L110.508 477.362L110.508 160.935C110.508 80.1094 137.088 72.8585 144.911 72.8585L144.911 444.269L207.359 444.269L207.359 477.362ZM172.956 415.512L172.956 244.193L172.91 244.193L172.91 33.0959L-6.79725e-05 33.0958L-6.50794e-05 0.00288104L172.91 0.00289616L172.91 -0.000369223L207.313 -0.000366215L207.313 0.00289917L207.313 0.00289917L207.313 33.0959L207.313 33.0959L207.313 72.8646L207.359 72.8646L207.359 327.471C207.359 408.262 180.779 415.547 172.956 415.547L172.956 415.512Z" fill="white"/>
</svg>
