<svg width="77" height="77" viewBox="0 0 77 77" fill="none" xmlns="http://www.w3.org/2000/svg">
<g clip-path="url(#clip0_4516_79)">
<path fill-rule="evenodd" clip-rule="evenodd" d="M0 38.4756C0 17.4699 17.0285 0.441406 38.0342 0.441406C59.0399 0.441406 76.0684 17.4699 76.0684 38.4756C76.0684 59.4813 59.0399 76.5098 38.0342 76.5098C17.0285 76.5098 0 59.4813 0 38.4756Z" fill="#4C6C91"/>
<path fill-rule="evenodd" clip-rule="evenodd" d="M40.024 50.9571C40.024 50.9571 40.7562 50.8773 41.1312 50.4819C41.4745 50.1196 41.4626 49.4359 41.4626 49.4359C41.4626 49.4359 41.417 46.2436 42.927 45.7722C44.4152 45.3087 46.3261 48.8594 48.354 50.2248C49.8858 51.2571 51.0486 51.0311 51.0486 51.0311L56.4677 50.9571C56.4677 50.9571 59.3012 50.7857 57.9578 48.5984C57.8467 48.4192 57.1741 46.9798 53.9298 44.0231C50.5307 40.9282 50.9871 41.4287 55.0787 36.0744C57.5709 32.8138 58.567 30.8232 58.2555 29.972C57.9598 29.1579 56.1264 29.3741 56.1264 29.3741L50.0267 29.4111C50.0267 29.4111 49.5743 29.3507 49.239 29.5474C48.9116 29.7403 48.6992 30.1902 48.6992 30.1902C48.6992 30.1902 47.7349 32.7125 46.4471 34.859C43.7306 39.3855 42.6452 39.6251 42.2008 39.3446C41.167 38.6882 41.4249 36.7113 41.4249 35.3069C41.4249 30.9187 42.1035 29.0897 40.1054 28.6164C39.4426 28.4586 38.9545 28.3554 37.2579 28.3379C35.0812 28.3165 33.2398 28.3457 32.1961 28.8462C31.5016 29.1793 30.9658 29.9234 31.2932 29.9662C31.696 30.0188 32.6088 30.2077 33.093 30.8544C33.718 31.69 33.6962 33.5637 33.6962 33.5637C33.6962 33.5637 34.0553 38.7291 32.8568 39.37C32.0353 39.8101 30.9083 38.9122 28.4855 34.8044C27.2453 32.7008 26.3087 30.3752 26.3087 30.3752C26.3087 30.3752 26.1282 29.9409 25.8047 29.7072C25.4138 29.4247 24.8682 29.3371 24.8682 29.3371L19.0721 29.3741C19.0721 29.3741 18.201 29.3975 17.8815 29.7695C17.5978 30.0986 17.8597 30.7823 17.8597 30.7823C17.8597 30.7823 22.3977 41.2047 27.537 46.4578C32.2496 51.2727 37.5992 50.9571 37.5992 50.9571H40.024Z" fill="white"/>
</g>
<defs>
<clipPath id="clip0_4516_79">
<rect width="76.0684" height="76.0684" fill="white" transform="translate(0 0.441406)"/>
</clipPath>
</defs>
</svg>
